<?xml version="1.0" standalone="no"?>
<!DOCTYPE svg PUBLIC "-//W3C//DTD SVG 20010904//EN"
 "http://www.w3.org/TR/2001/REC-SVG-20010904/DTD/svg10.dtd">
<svg version="1.0" xmlns="http://www.w3.org/2000/svg"
 width="75.000000pt" height="75.000000pt" viewBox="0 0 75.000000 75.000000"
 preserveAspectRatio="xMidYMid meet">
<metadata>
Created by potrace 1.10, written by Peter Selinger 2001-2011
</metadata>
<g transform="translate(0.000000,75.000000) scale(0.100000,-0.100000)"
fill="#1b8bd6" stroke="none">
<path d="M10 723 c0 -11 3 -14 8 -7 4 6 14 14 22 17 10 4 8 6 -7 6 -16 1 -23
-5 -23 -16z"/>
<path d="M238 733 c6 -2 18 -2 25 0 6 3 1 5 -13 5 -14 0 -19 -2 -12 -5z"/>
<path d="M363 733 c9 -2 23 -2 30 0 6 3 -1 5 -18 5 -16 0 -22 -2 -12 -5z"/>
<path d="M458 733 c12 -2 32 -2 45 0 12 2 2 4 -23 4 -25 0 -35 -2 -22 -4z"/>
<path d="M603 733 c9 -2 25 -2 35 0 9 3 1 5 -18 5 -19 0 -27 -2 -17 -5z"/>
<path d="M707 733 c12 -2 24 -12 26 -21 3 -12 5 -10 6 6 1 18 -4 22 -26 21
-23 -1 -24 -2 -6 -6z"/>
<path d="M38 498 c-2 -123 -1 -241 3 -263 7 -41 9 -37 18 32 0 7 8 10 18 6 10
-4 14 -2 10 4 -7 11 13 23 36 23 8 0 7 -4 -1 -12 -14 -14 -16 -28 -3 -28 7 0
31 51 31 66 0 10 -29 2 -63 -16 -46 -25 -47 -25 -47 4 0 21 6 24 55 31 53 6
56 5 91 -29 35 -34 36 -37 23 -64 -7 -15 -17 -36 -21 -47 -5 -12 -6 -4 -3 21
4 30 1 43 -9 47 -9 4 -12 0 -9 -11 3 -15 -22 -130 -42 -187 -4 -12 2 -7 14 10
11 17 24 45 27 63 6 28 14 36 35 34 3 -1 4 9 2 22 -6 30 7 38 30 21 14 -10 16
-18 9 -32 -8 -15 -5 -23 14 -40 l25 -22 -7 37 c-7 43 -52 167 -72 200 -17 26
-37 30 -27 5 18 -43 16 -56 -3 -27 -11 18 -26 35 -32 39 -8 5 -9 10 -2 14 7 4
5 13 -4 25 -12 18 -13 17 -9 -12 2 -17 6 -35 8 -39 3 -4 -12 -8 -34 -8 l-39 0
-1 70 c0 39 -1 95 -1 125 0 30 0 76 1 101 1 46 1 47 34 45 30 -1 45 -15 46
-44 1 -7 -3 -11 -8 -8 -4 3 -7 -6 -5 -21 3 -26 21 -45 39 -40 5 2 17 -6 27
-17 16 -20 16 -19 0 15 -9 20 -18 32 -20 28 -7 -17 -28 -9 -28 11 0 11 4 20 8
20 4 0 5 7 2 15 -7 17 11 21 21 5 4 -6 10 -8 15 -5 5 3 8 -3 8 -12 -1 -25 19
-73 31 -73 5 0 11 -7 14 -14 4 -11 1 -13 -11 -10 -16 5 -16 5 0 -5 9 -6 23 -8
31 -5 13 5 13 9 1 32 -8 15 -14 34 -14 43 0 9 -3 19 -7 22 -3 4 -7 20 -7 37
-1 25 3 30 22 30 23 0 31 -24 11 -36 -6 -3 -8 -17 -5 -30 11 -41 26 -77 32
-71 3 2 -2 22 -10 42 -19 46 -20 37 7 67 l24 25 11 -30 c9 -24 8 -34 -3 -51
-21 -30 -18 -42 3 -16 25 30 45 18 37 -21 -5 -21 -2 -31 9 -35 24 -9 19 -19
-9 -20 -21 -2 -25 3 -25 25 0 15 6 33 13 41 6 8 2 6 -10 -4 -13 -11 -23 -25
-23 -33 0 -7 -5 -13 -12 -13 -6 0 -1 -11 12 -25 18 -19 26 -22 37 -13 22 18
25 3 3 -17 -17 -16 -25 -17 -58 -7 -21 7 -66 30 -101 52 -34 22 -66 40 -71 40
-6 0 -10 7 -10 16 0 8 -5 12 -11 9 -7 -5 -5 -13 5 -24 14 -16 14 -21 -3 -54
-10 -20 -15 -34 -10 -31 5 3 9 -2 9 -10 0 -23 2 -28 30 -56 25 -26 63 -30 77
-7 4 7 -5 8 -27 4 l-33 -7 7 39 c4 30 1 43 -14 61 -21 24 -26 40 -12 40 13 -1
38 -24 45 -42 3 -10 29 -24 62 -33 30 -9 55 -19 55 -21 0 -10 -26 -32 -58 -48
-35 -18 -42 -35 -15 -32 12 1 28 -23 55 -84 44 -100 50 -172 19 -233 l-19 -37
75 0 c64 0 74 2 69 16 -3 9 -6 18 -6 20 0 3 -6 2 -12 -2 -16 -10 -48 -14 -70
-7 -13 3 -16 9 -9 21 5 9 8 41 8 69 -1 59 3 66 27 57 15 -6 15 -9 1 -30 -21
-32 -20 -50 2 -33 15 13 16 12 11 -9 -4 -12 -2 -20 3 -16 5 3 13 -5 19 -18 6
-16 7 -3 3 41 -4 40 -3 62 3 58 6 -3 10 9 10 29 0 19 6 40 13 47 13 12 12 2
-7 -53 -4 -12 -2 -13 8 -3 8 7 14 28 14 47 1 19 3 33 6 31 3 -2 6 22 7 53 1
54 0 58 -33 79 -19 12 -34 17 -34 11 0 -6 -2 -9 -5 -6 -12 12 9 38 31 38 13 0
24 4 24 9 0 14 60 25 72 13 7 -7 -1 -13 -28 -18 -28 -5 -34 -9 -20 -14 23 -8
116 21 116 37 0 14 -27 43 -41 43 -5 0 -9 -4 -9 -9 0 -5 -7 -11 -15 -15 -21
-8 -19 0 7 24 12 11 28 18 36 15 7 -2 16 3 19 13 9 26 24 42 33 37 5 -3 2 -18
-6 -33 -16 -31 -18 -52 -5 -52 5 0 12 12 16 27 6 27 21 43 39 43 5 0 2 -8 -7
-18 -22 -24 -22 -42 1 -42 10 -1 3 -7 -15 -15 -21 -9 -33 -21 -33 -33 0 -16
-10 -21 -50 -26 -61 -8 -57 -26 6 -26 24 0 44 -4 44 -10 0 -5 -20 -10 -45 -10
-25 0 -45 -4 -45 -9 0 -12 27 -21 44 -15 11 4 13 0 9 -15 -6 -24 -53 -65 -62
-55 -3 3 1 11 9 17 20 16 25 47 8 47 -18 0 -85 -211 -87 -270 -1 -36 1 -41 10
-27 5 9 8 21 5 26 -3 5 1 11 9 15 19 7 19 4 0 -41 -17 -40 -19 -53 -7 -53 4 0
14 17 21 37 7 21 27 67 43 103 48 105 78 179 78 191 0 7 29 61 65 120 63 103
65 110 65 173 l0 66 -50 0 c-27 0 -50 -4 -50 -10 0 -5 7 -7 16 -3 12 4 15 2
12 -8 -3 -8 -10 -14 -17 -14 -12 0 -92 -67 -87 -72 8 -8 56 25 60 41 3 12 10
16 21 13 9 -4 24 2 35 13 11 11 26 20 33 20 6 0 4 -5 -6 -11 -14 -8 -17 -19
-12 -46 3 -19 10 -43 15 -53 13 -25 13 -30 -4 -30 -8 0 -13 6 -13 13 2 40 -42
98 -55 70 -13 -32 -242 -182 -256 -169 -7 8 19 28 88 68 66 37 91 58 85 69 -3
4 13 28 35 54 22 25 40 48 40 51 0 2 -24 4 -52 4 -50 -1 -52 -2 -33 -16 22
-17 21 -40 -2 -66 -8 -9 -12 -22 -8 -28 4 -7 1 -16 -6 -21 -23 -14 -34 -10
-14 5 18 13 17 14 -8 14 -22 0 -27 -5 -27 -26 0 -15 -4 -22 -9 -17 -14 17 -34
103 -26 115 4 7 1 17 -6 22 -12 8 -11 9 1 5 8 -2 18 -20 21 -40 8 -49 19 -59
19 -18 0 48 -16 71 -50 71 -28 0 -28 0 -13 -30 8 -17 13 -36 11 -42 -3 -7 -13
6 -24 27 l-19 40 -161 3 -162 2 -4 -222z m154 189 c-5 -18 -6 -18 -17 -4 -9
12 -14 14 -23 5 -8 -8 -12 -8 -12 -2 0 16 9 22 34 22 19 0 22 -5 18 -21z m34
-24 c-11 -12 -27 13 -20 32 7 17 8 17 17 -3 6 -12 7 -25 3 -29z m144 17 c7
-17 21 -36 30 -43 10 -7 22 -29 28 -50 9 -33 9 -37 -9 -37 -20 0 -26 16 -8 22
6 2 -9 28 -33 58 -25 30 -43 61 -41 68 8 20 20 14 33 -18z m-136 -63 c8 -33
-1 -32 -18 2 -13 25 -14 29 -2 25 8 -3 17 -15 20 -27z m416 4 c0 -12 -20 -25
-27 -18 -7 7 6 27 18 27 5 0 9 -4 9 -9z m-264 -58 c-10 -10 -19 5 -10 18 6 11
8 11 12 0 2 -7 1 -15 -2 -18z m-233 -73 c3 -11 -1 -24 -9 -31 -10 -8 -14 -6
-18 13 -8 39 -4 59 10 48 6 -6 14 -19 17 -30z m58 23 c13 -16 12 -17 -3 -4
-10 7 -18 15 -18 17 0 8 8 3 21 -13z m348 -14 c-22 -14 -33 -10 -19 6 7 8 17
12 22 9 6 -4 5 -10 -3 -15z m-229 -48 c0 -12 -20 -25 -27 -18 -7 7 6 27 18 27
5 0 9 -4 9 -9z m34 -2 c-3 -6 6 -22 22 -36 21 -18 24 -23 9 -18 -52 18 -57 17
-81 -10 -13 -16 -24 -31 -24 -34 0 -3 16 -17 35 -30 38 -25 35 -54 -2 -30 -42
25 -65 95 -36 106 12 5 12 7 1 15 -9 6 -6 7 9 3 16 -4 26 0 39 20 15 24 43 37
28 14z m-99 -48 c-3 -6 -11 -11 -17 -11 -6 0 -6 6 2 15 14 17 26 13 15 -4z
m185 -14 c0 -7 -7 -23 -16 -35 -8 -12 -10 -22 -5 -22 7 0 7 -9 -1 -25 -7 -16
-17 -24 -26 -20 -7 3 -18 5 -23 5 -5 0 -9 5 -9 10 0 6 9 10 20 10 11 0 20 4
20 9 0 6 -12 6 -29 1 -23 -6 -31 -5 -36 7 -8 22 2 28 20 13 12 -10 21 -10 41
-1 14 6 22 16 19 22 -4 5 -8 21 -10 34 -2 21 0 23 16 14 11 -5 19 -15 19 -22z
m-66 -13 c9 -3 16 -13 16 -20 0 -12 -4 -12 -21 -3 -16 8 -28 8 -45 0 -26 -11
-32 -3 -12 17 13 13 37 15 62 6z m166 -75 c0 -14 -55 -69 -69 -69 -21 0 -11
20 19 35 17 9 30 22 30 30 0 8 5 15 10 15 6 0 10 -5 10 -11z m-35 -9 c-3 -5
-12 -10 -18 -10 -7 0 -6 4 3 10 19 12 23 12 15 0z m-115 -31 c0 -5 -11 -9 -24
-9 -13 0 -27 -7 -30 -16 -8 -20 -26 -8 -26 18 0 12 5 18 13 15 6 -2 21 -1 32
3 22 8 35 4 35 -11z m108 -46 c-9 -10 -13 -23 -11 -30 4 -12 -44 -50 -53 -40
-3 2 7 14 22 26 24 19 24 26 2 22 -17 -2 -7 9 20 23 35 20 38 20 20 -1z"/>
<path d="M470 706 c0 -18 26 -39 39 -31 7 4 6 12 -2 25 -14 23 -37 27 -37 6z"/>
<path d="M11 684 c0 -11 3 -14 6 -6 3 7 2 16 -1 19 -3 4 -6 -2 -5 -13z"/>
<path d="M305 671 c3 -5 1 -12 -5 -16 -6 -4 -7 -11 -4 -17 4 -6 10 -5 15 3 12
19 11 39 -2 39 -5 0 -8 -4 -4 -9z"/>
<path d="M483 641 c1 -15 4 -17 19 -7 23 14 23 21 -1 23 -13 1 -19 -4 -18 -16z"/>
<path d="M720 537 c0 -39 -6 -50 -55 -102 -31 -32 -54 -64 -51 -70 2 -7 0 -17
-5 -22 -5 -5 -11 -23 -13 -39 -4 -28 -56 -149 -56 -129 0 5 -9 -7 -20 -28 -11
-21 -18 -42 -16 -46 3 -4 -1 -17 -9 -27 -19 -25 -19 -44 1 -44 11 0 14 6 9 20
-4 14 -2 20 6 18 9 -2 12 8 10 33 -2 28 3 39 22 52 22 14 87 161 87 196 0 15
51 91 74 110 23 19 21 -3 -4 -37 -23 -33 -41 -125 -19 -104 16 15 29 16 29 1
0 -5 -4 -8 -9 -5 -5 3 -14 -8 -20 -26 -14 -38 -14 -48 -1 -48 18 0 35 46 41
115 4 44 6 -4 7 -132 l2 -203 -167 -3 -168 -3 173 -2 172 -2 0 285 c0 183 -4
285 -10 285 -5 0 -10 -20 -10 -43z"/>
<path d="M274 521 c3 -5 16 -11 28 -14 22 -6 22 -5 4 8 -22 17 -40 20 -32 6z"/>
<path d="M183 462 c-1 -14 7 -17 43 -18 49 -2 59 10 17 20 -16 4 -35 9 -43 11
-10 3 -16 -2 -17 -13z"/>
<path d="M410 455 c0 -1 16 -13 36 -24 29 -17 35 -26 30 -44 -16 -60 -15 -67
4 -23 17 40 19 52 8 61 -13 12 -78 37 -78 30z"/>
<path d="M260 291 c0 -5 5 -22 11 -38 7 -15 15 -44 19 -63 l8 -35 1 36 c0 20
-6 53 -14 73 -15 35 -25 46 -25 27z"/>
<path d="M612 237 c-11 -25 -23 -55 -27 -67 -4 -11 -18 -25 -32 -31 -21 -8
-23 -12 -13 -24 7 -8 19 -15 27 -15 12 0 13 3 5 13 -9 10 -7 17 7 29 19 16 66
127 57 135 -2 3 -13 -16 -24 -40z"/>
<path d="M681 190 c-18 -38 -36 -82 -41 -97 -4 -15 -11 -36 -15 -46 -6 -15 -1
-17 44 -17 l51 0 0 68 0 67 -30 -62 c-29 -62 -49 -84 -36 -41 4 13 9 33 11 44
7 31 34 94 41 94 3 0 3 -8 0 -17 -4 -10 -4 -14 1 -10 7 8 16 87 9 87 -2 0 -17
-31 -35 -70z m22 -125 c-3 -9 -8 -14 -10 -11 -3 3 -2 9 2 15 9 16 15 13 8 -4z"/>
<path d="M97 226 c-15 -14 -33 -29 -40 -33 -9 -5 -16 -37 -20 -86 -6 -64 -4
-77 8 -77 8 0 21 12 30 28 l15 27 -6 -30 c-4 -20 -3 -27 3 -20 9 9 23 58 48
165 3 14 -9 -6 -28 -43 -39 -78 -55 -99 -51 -65 1 13 3 39 3 59 1 24 7 39 17
43 12 5 15 2 9 -11 -21 -51 -12 -51 15 1 17 32 29 60 27 62 -2 2 -16 -7 -30
-20z"/>
<path d="M635 219 c-4 -6 -5 -12 -2 -15 2 -3 7 2 10 11 7 17 1 20 -8 4z"/>
<path d="M640 175 c-10 -19 -16 -22 -22 -13 -5 8 -7 4 -6 -12 2 -19 -1 -24
-14 -22 -15 2 -16 -1 -8 -23 16 -42 12 -46 -27 -24 -21 12 -33 15 -26 9 9 -10
8 -18 -4 -37 l-16 -24 44 3 44 3 22 65 c12 36 27 73 33 83 5 9 6 17 2 17 -5 0
-15 -11 -22 -25z"/>
<path d="M216 155 c4 -11 10 -22 13 -25 19 -16 32 -53 22 -63 -7 -7 -13 -3
-20 14 -5 13 -11 21 -12 17 -1 -5 -3 -12 -4 -18 -1 -5 -3 -14 -4 -19 0 -5 -8
-12 -16 -15 -14 -5 -15 3 -10 57 5 65 -3 55 -25 -30 -9 -37 -15 -43 -38 -44
-15 0 -36 -4 -47 -9 -14 -6 2 -9 50 -9 48 0 64 3 50 9 -16 7 -13 9 17 9 31 1
36 4 32 19 -5 16 -5 16 9 0 22 -28 34 -21 41 23 4 23 5 42 4 43 -2 0 -18 14
-36 31 -26 24 -32 26 -26 10z"/>
<path d="M370 91 c0 -5 5 -13 10 -16 6 -3 10 -2 10 4 0 5 -4 13 -10 16 -5 3
-10 2 -10 -4z"/>
<path d="M11 43 c-1 -25 3 -33 17 -33 11 0 13 3 6 8 -7 4 -14 18 -17 32 -4 21
-4 20 -6 -7z"/>
</g>
</svg>
