<?xml version="1.0" standalone="no"?>
<!DOCTYPE svg PUBLIC "-//W3C//DTD SVG 20010904//EN"
 "http://www.w3.org/TR/2001/REC-SVG-20010904/DTD/svg10.dtd">
<svg version="1.0" xmlns="http://www.w3.org/2000/svg"
 width="75.000000pt" height="75.000000pt" viewBox="0 0 75.000000 75.000000"
 preserveAspectRatio="xMidYMid meet">
<metadata>
Created by potrace 1.10, written by Peter Selinger 2001-2011
</metadata>
<g transform="translate(0.000000,75.000000) scale(0.050000,-0.050000)"
fill="#1b8bd6" stroke="none">
<path d="M40 1104 c0 -194 -5 -518 -13 -719 l-13 -365 168 0 c92 0 182 9 198
20 27 17 27 19 0 20 -24 1 -23 7 6 29 20 15 34 32 30 38 -3 5 1 16 9 25 8 8
15 -9 15 -39 l0 -53 249 0 c144 0 254 -8 261 -20 7 -12 120 -20 271 -20 l259
0 0 385 c-1 256 -7 375 -20 355 -23 -36 -24 -16 -20 405 l3 295 -702 -1 -702
0 1 -355z m343 241 c-44 -52 -99 -133 -123 -180 -45 -86 -100 -114 -100 -50 1
30 3 31 21 5 18 -25 20 -23 15 9 -7 43 33 99 162 225 114 112 124 109 25 -9z
m658 51 c32 -24 82 -77 111 -119 29 -42 62 -71 74 -64 11 8 14 3 6 -9 -8 -13
-4 -41 8 -64 36 -67 -7 -45 -58 31 -31 45 -59 67 -78 59 -24 -9 -25 -5 -5 19
21 25 17 28 -20 21 -24 -5 -39 -3 -32 4 7 7 -10 42 -37 78 -76 100 -66 116 31
44z m-155 -39 c24 -12 78 -53 120 -91 42 -37 83 -63 92 -57 19 12 96 -67 84
-86 -4 -7 12 -22 35 -33 49 -22 103 -124 103 -194 0 -27 18 -133 40 -236 22
-103 40 -195 40 -205 0 -9 9 -12 20 -5 13 8 19 -58 19 -184 -1 -118 -8 -180
-18 -156 -8 22 -12 54 -7 70 5 18 -1 15 -14 -7 -13 -20 -19 -54 -14 -75 6 -21
1 -38 -9 -38 -11 0 -18 47 -15 105 3 76 -6 122 -32 162 -20 31 -58 152 -84
269 -51 235 -80 288 -264 487 -139 152 -202 178 -306 126 -72 -37 -256 -206
-256 -237 0 -10 21 1 46 25 26 23 54 43 63 43 9 0 -9 -20 -41 -45 -31 -25 -63
-45 -71 -45 -7 0 -21 -8 -30 -18 -10 -11 -7 -12 8 -4 33 19 32 3 -5 -68 -30
-58 -22 -180 12 -180 9 0 8 24 -3 53 -35 91 113 300 268 380 72 38 97 16 35
-32 -27 -20 -39 -41 -27 -48 11 -7 44 16 72 51 37 44 53 53 53 31 0 -18 -9
-38 -20 -45 -11 -7 -20 -22 -20 -34 0 -13 11 -12 30 4 17 14 30 18 30 10 0 -8
13 -4 28 9 18 14 33 16 40 4 16 -25 -120 -187 -192 -231 -30 -18 -68 -47 -85
-64 -17 -17 -56 -33 -86 -36 -93 -9 -192 -250 -116 -279 17 -6 35 -3 42 8 6
10 2 19 -10 19 -42 0 -19 43 68 131 91 90 146 116 123 57 -9 -24 -4 -29 20
-20 25 10 29 4 19 -23 -35 -88 -36 -166 -2 -204 38 -42 -19 -80 -74 -49 -14 7
-5 -6 20 -30 25 -25 41 -53 34 -63 -15 -25 92 -24 131 1 24 16 22 19 -14 20
-24 0 -49 9 -56 20 -8 12 22 20 75 20 48 0 104 12 124 27 32 23 21 26 -81 18
l-118 -10 44 43 c24 23 54 42 65 42 12 0 21 12 21 27 0 17 -19 23 -58 18 l-57
-9 5 167 c3 112 12 165 27 162 13 -3 23 7 23 22 0 25 143 193 164 193 36 0
-20 -110 -72 -142 -70 -43 -62 -49 22 -15 47 19 163 26 178 11 21 -21 28 -114
9 -114 -13 0 -18 9 -11 20 7 11 -2 20 -19 20 -17 0 -31 8 -31 18 0 41 -67 37
-155 -10 -100 -53 -124 -98 -52 -98 24 0 50 -7 59 -15 8 -8 31 -15 50 -15 81
0 149 -159 93 -219 -20 -21 -20 -24 0 -13 34 19 32 3 -13 -85 -54 -105 -193
-243 -246 -243 -45 0 -216 166 -216 210 0 39 -66 81 -123 78 -66 -3 -131 117
-105 195 8 26 13 72 10 102 -3 30 9 83 27 118 38 78 39 88 2 58 -42 -35 -108
-257 -106 -361 1 -142 -39 -242 -126 -317 l-79 -68 1 68 c0 41 20 90 50 127
l49 60 -12 -65 c-7 -36 -7 -65 1 -65 31 0 78 162 91 314 17 208 167 447 389
622 31 24 49 44 41 44 -9 0 -47 -23 -84 -52 -38 -29 -81 -54 -97 -56 -15 -2
-35 -12 -43 -21 -9 -10 -3 -10 14 -1 17 9 23 9 14 -1 -23 -25 -76 -29 -61 -4
8 13 4 15 -12 6 -13 -9 -20 -32 -15 -53 6 -21 0 -35 -13 -32 -13 2 -23 -9 -23
-26 0 -16 -5 -34 -10 -40 -6 -5 -32 -58 -59 -116 -50 -109 -96 -166 -62 -78
12 33 11 56 -4 71 -17 17 -14 23 13 23 28 0 34 11 25 45 -46 183 474 526 653
432z m234 -656 c0 -76 -29 -93 -68 -38 -23 33 -25 51 -9 71 39 46 77 30 77
-33z m-960 -180 c0 -38 -71 -121 -104 -121 -29 0 -17 86 17 123 44 48 87 47
87 -2z m926 -116 l-6 -75 30 65 c37 79 52 83 39 10 -7 -39 5 -72 40 -115 l50
-59 -11 79 -10 80 31 -67 c61 -134 37 -263 -50 -263 -56 0 -98 117 -86 235 1
14 -6 25 -17 25 -20 0 -13 -95 15 -205 23 -92 -41 -67 -78 31 -43 111 -42 159
7 255 50 97 53 98 46 4z m-591 -51 c25 -23 45 -51 44 -62 0 -12 -22 3 -49 33
-26 30 -62 55 -79 55 -17 0 -31 9 -31 19 0 27 61 3 115 -45z m-138 -48 c10
-177 -41 -246 -180 -246 l-118 0 39 76 c22 42 55 90 74 105 22 19 15 -3 -20
-61 l-54 -90 78 89 c56 63 82 80 90 60 17 -43 77 39 63 85 -10 30 1 76 18 76
3 0 8 -42 10 -94z m659 -211 c28 -32 26 -35 -13 -35 -36 0 -43 11 -41 65 0 36
6 52 12 35 6 -16 25 -46 42 -65z"/>
<path d="M670 1340 c-37 -16 -37 -17 -3 -19 25 -1 33 -11 26 -31 -13 -33 3
-38 43 -13 14 9 20 31 13 50 -15 37 -21 38 -79 13z"/>
<path d="M543 890 c-46 -49 -83 -96 -83 -104 0 -7 8 -5 17 5 104 114 166 189
158 189 -6 0 -47 -40 -92 -90z"/>
<path d="M711 921 c-8 -12 -21 -17 -29 -12 -9 5 -51 -28 -94 -74 -43 -46 -60
-70 -38 -54 22 16 57 50 78 76 25 31 42 39 52 24 9 -16 21 -13 40 9 14 17 21
36 15 42 -6 6 -17 1 -24 -11z"/>
<path d="M342 579 l2 -89 19 68 c13 46 13 74 -2 89 -15 15 -20 -5 -19 -68z"/>
</g>
</svg>
